name rise44.9368peak50.754fall52.0217.mot
datacolumns 19
datarows 20
range 18.69327700000000 18.72493000000000
endheader
time	ground_force1_vx	ground_force1_vy	ground_force1_vz	ground_force1_px	ground_force1_py	ground_force1_pz	ground_force2_vx	ground_force2_vy	ground_force2_vz	ground_force2_px	ground_force2_py	ground_force2_pz	ground_torque1_x	ground_torque1_y	ground_torque1_z	ground_torque2_x	ground_torque2_y	ground_torque2_z	
18.69327700000000	-52.79874200000000	793.91886699999998	56.78015000000000	0.10072500000000	0.00000000000000	0.15942500000000	-4.44985900000000	21.70630400000000	3.99410300000000	0.00000000000000	0.00000000000000	0.00000000000000	0.00000000000000	28.00155100000000	0.00000000000000	0.00000000000000	1.41942100000000	0.00000000000000	
18.69493500000000	-53.22301900000000	792.91216499999996	56.77451800000000	0.09998900000000	0.00000000000000	0.15936200000000	-5.39126900000000	27.72352400000000	4.93942800000000	0.30672100000000	0.00000000000000	-0.04909200000000	0.00000000000000	27.98485000000000	0.00000000000000	0.00000000000000	3.01368400000000	0.00000000000000	
18.69659800000000	-53.65318500000000	791.80934600000001	56.75055100000000	0.09927100000000	0.00000000000000	0.15929500000000	-6.31056900000000	34.13621000000000	5.89953700000000	0.31440300000000	0.00000000000000	-0.04931400000000	0.00000000000000	27.96764400000000	0.00000000000000	0.00000000000000	3.65902800000000	0.00000000000000	
18.69826400000000	-54.08961000000000	790.60834999999997	56.70764300000000	0.09857000000000	0.00000000000000	0.15922500000000	-7.17310400000000	40.81740400000000	6.84586500000000	0.32140200000000	0.00000000000000	-0.04951100000000	0.00000000000000	27.95007100000000	0.00000000000000	0.00000000000000	4.31088800000000	0.00000000000000	
18.69993200000000	-54.53264700000000	789.30712000000005	56.64521300000000	0.09788600000000	0.00000000000000	0.15915000000000	-7.94741200000000	47.64263800000000	7.75171600000000	0.32781500000000	0.00000000000000	-0.04969000000000	0.00000000000000	27.93226500000000	0.00000000000000	0.00000000000000	4.95138000000000	0.00000000000000	
18.70159800000000	-54.98263200000000	787.90360099999998	56.56271700000000	0.09721900000000	0.00000000000000	0.15907200000000	-8.60727100000000	54.49929200000000	8.59405900000000	0.33372000000000	0.00000000000000	-0.04985400000000	0.00000000000000	27.91435100000000	0.00000000000000	0.00000000000000	5.56443000000000	0.00000000000000	
18.70326700000000	-55.43987900000000	786.39573700000005	56.45964000000000	0.09656900000000	0.00000000000000	0.15898900000000	-9.13308100000000	61.29385800000000	9.35482000000000	0.33917800000000	0.00000000000000	-0.05000700000000	0.00000000000000	27.89645000000000	0.00000000000000	0.00000000000000	6.13675800000000	0.00000000000000	
18.70492900000000	-55.90467600000000	784.78147700000000	56.33550400000000	0.09593700000000	0.00000000000000	0.15890300000000	-9.51253100000000	67.95659499999999	10.02158300000000	0.34424000000000	0.00000000000000	-0.05015200000000	0.00000000000000	27.87867300000000	0.00000000000000	0.00000000000000	6.65850300000000	0.00000000000000	
18.70660200000000	-56.37728300000000	783.05876799999999	56.18987100000000	0.09532000000000	0.00000000000000	0.15881200000000	-9.74056500000000	74.44351300000000	10.58773300000000	0.34894900000000	0.00000000000000	-0.05029100000000	0.00000000000000	27.86112200000000	0.00000000000000	0.00000000000000	7.12347500000000	0.00000000000000	
18.70827000000000	-56.85792900000000	781.22556199999997	56.02233700000000	0.09471900000000	0.00000000000000	0.15871700000000	-9.81876300000000	80.73590100000000	11.05208600000000	0.35333900000000	0.00000000000000	-0.05042500000000	0.00000000000000	27.84388800000000	0.00000000000000	0.00000000000000	7.52906200000000	0.00000000000000	
18.70993400000000	-57.34680700000000	779.27981599999998	55.83254400000000	0.09413400000000	0.00000000000000	0.15861800000000	-9.75428400000000	86.83786600000001	11.41814500000000	0.35744000000000	0.00000000000000	-0.05055700000000	0.00000000000000	27.82705500000000	0.00000000000000	0.00000000000000	7.87585500000000	0.00000000000000	
18.71159600000000	-57.84407100000000	777.21948799999996	55.62017200000000	0.09356400000000	0.00000000000000	0.15851500000000	-9.55853700000000	92.77241400000000	11.69309900000000	0.36127700000000	0.00000000000000	-0.05068700000000	0.00000000000000	27.81069100000000	0.00000000000000	0.00000000000000	8.16707100000000	0.00000000000000	
18.71326500000000	-58.34983300000000	775.04254500000002	55.38494600000000	0.09300800000000	0.00000000000000	0.15840700000000	-9.24573100000000	98.57666100000000	11.88668800000000	0.36487200000000	0.00000000000000	-0.05081600000000	0.00000000000000	27.79485700000000	0.00000000000000	0.00000000000000	8.40785900000000	0.00000000000000	
18.71493600000000	-58.86416100000000	772.74695999999994	55.12663700000000	0.09246500000000	0.00000000000000	0.15829500000000	-8.83144500000000	104.29672500000000	12.01006000000000	0.36824400000000	0.00000000000000	-0.05094600000000	0.00000000000000	27.77959700000000	0.00000000000000	0.00000000000000	8.60455800000000	0.00000000000000	
18.71660300000000	-59.38707200000000	770.33071800000005	54.84505900000000	0.09193500000000	0.00000000000000	0.15818000000000	-8.33134200000000	109.98275099999999	12.07471000000000	0.37140800000000	0.00000000000000	-0.05107600000000	0.00000000000000	27.76494600000000	0.00000000000000	0.00000000000000	8.76399000000000	0.00000000000000	
18.71826200000000	-59.91853200000000	767.79181400000004	54.54007400000000	0.09141700000000	0.00000000000000	0.15805900000000	-7.76008600000000	115.68447399999999	12.09156900000000	0.37437800000000	0.00000000000000	-0.05120800000000	0.00000000000000	27.75092100000000	0.00000000000000	0.00000000000000	8.89283500000000	0.00000000000000	
18.71993500000000	-60.45845000000000	765.12825999999995	54.21159200000000	0.09091000000000	0.00000000000000	0.15793500000000	-7.13053000000000	121.44754600000000	12.07030000000000	0.37716800000000	0.00000000000000	-0.05134200000000	0.00000000000000	27.73752900000000	0.00000000000000	0.00000000000000	8.99711500000000	0.00000000000000	
18.72159900000000	-61.00667900000000	762.33808399999998	53.85956800000000	0.09041400000000	0.00000000000000	0.15780700000000	-6.45318100000000	127.31079500000000	12.01880100000000	0.37978800000000	0.00000000000000	-0.05147700000000	0.00000000000000	27.72475900000000	0.00000000000000	0.00000000000000	9.08183000000000	0.00000000000000	
18.72326900000000	-61.56300800000000	759.41933800000004	53.48400900000000	0.08992600000000	0.00000000000000	0.15767500000000	-5.73593700000000	133.30445599999999	11.94293800000000	0.38224800000000	0.00000000000000	-0.05161600000000	0.00000000000000	27.71258500000000	0.00000000000000	0.00000000000000	9.15072700000000	0.00000000000000	
18.72493000000000	-62.12716200000000	756.37009799999998	53.08496700000000	0.08944600000000	0.00000000000000	0.15753900000000	-4.98406300000000	139.44933499999999	11.84646900000000	0.38455700000000	0.00000000000000	-0.05175600000000	0.00000000000000	27.70096800000000	0.00000000000000	0.00000000000000	9.20621300000000	0.00000000000000	
